<?xml version="1.0" encoding="utf-8"?>
<!-- Generator: Adobe Illustrator 27.3.1, SVG Export Plug-In . SVG Version: 6.00 Build 0)  -->
<svg version="1.1" id="Layer_1" xmlns="http://www.w3.org/2000/svg" xmlns:xlink="http://www.w3.org/1999/xlink" x="0px" y="0px"
	 viewBox="0 0 520.7 472.7" style="enable-background:new 0 0 520.7 472.7;" xml:space="preserve">
<style type="text/css">
	.st0{fill:#FFFFFF;}
</style>
<g id="surface1">
	<path class="st0" d="M120.9,43.2c0-2.2,1.3-3.5,2.2-3.8c0.6-0.3,1.3-0.6,2.2-0.6c0.6,0,1.6,0.3,2.2,0.6l13.7,8L167.6,32l-26.8-15.3
		c-9.6-5.4-21.1-5.4-31,0c-9.6,5.8-15.3,15.7-15.3,26.8v286.3l26.2,15.3v-302h0.2V43.2z"/>
	<path class="st0" d="M127.9,429.6c-1.9,1-3.8,0.6-4.5,0c-1-0.6-2.2-1.6-2.2-3.8v-15.7L95,394.7v31c0,11.2,5.8,21.1,15.3,26.8
		c4.8,2.9,10.2,4.2,15.3,4.2c5.4,0,10.5-1.3,15.3-4.2L402,301.7v-30.4L127.9,429.6z"/>
	<path class="st0" d="M472.4,207.8l-248-143.2l-26.5,15L459,230.5c1.9,1.3,2.2,2.9,2.2,3.8s-0.3,2.9-2.2,3.8l-11.8,6.7v30.4
		l24.9-14.4c9.6-5.4,15.3-15.7,15.3-26.8C487.7,223.1,482,213.2,472.4,207.8z"/>
	<path class="st0" d="M79.7,368.5l22.7,13.1l26.2,15.3l7.7,4.5l5.4,3.2l95.5-55.3v-95.2c0-12.1,6.4-23.3,16.9-29.4l82.4-47.6
		L190.2,92.8l-22.7-13.1l22.7-13.1l26.2-15.3l7.7-4.5l7.7,4.5l161,93.3l3.2-1.9c9.3-5.4,21.1,1.3,21.1,12.1v3.8l15,8.6V142
		c0-12.5-6.7-24-17.3-30L254.5,19.3c-10.9-6.4-24-6.4-34.8,0L136,67.6v303.2l-22.7-13.1L87,342.3l-7.3-4.2v-238l-20.1,11.5
		c-10.9,6.1-17.3,17.6-17.3,30v185c0,12.5,6.7,24,17.3,30L79.7,368.5z"/>
	<path class="st0" d="M417.1,223.8v94.9c0,12.1-6.4,23.3-16.9,29.4l-141.9,82.1c-9.3,5.4-21.1-1.3-21.1-12.1v-3.8L197.9,437
		l21.7,12.5c10.9,6.4,24,6.4,34.8,0L414.6,357c10.9-6.4,17.3-17.6,17.3-30v-94.6L417.1,223.8z"/>
</g>
</svg>
